/vscmnt/brussel_pixiu_data/_data_brussel/112/vsc11236/PredSimResults/SUBJ04_Dhondt2024_3seg/weighted-LRposFixed/worker_05.mot
version=1
nRows=4
nColumns=124
inDegrees=yes
endheader
                time	         pelvis_tilt	         pelvis_list	     pelvis_rotation	           pelvis_tx	           pelvis_ty	           pelvis_tz	       hip_flexion_r	     hip_adduction_r	      hip_rotation_r	        knee_angle_r	       ankle_angle_r	    subtalar_angle_r	         mtp_angle_r	       hip_flexion_l	     hip_adduction_l	      hip_rotation_l	        knee_angle_l	       ankle_angle_l	    subtalar_angle_l	         mtp_angle_l	    lumbar_extension	      lumbar_bending	     lumbar_rotation	          arm_flex_r	           arm_add_r	           arm_rot_r	        elbow_flex_r	          arm_flex_l	           arm_add_l	           arm_rot_l	        elbow_flex_l	glut_med1_r/activation	glut_med2_r/activation	glut_med3_r/activation	glut_min1_r/activation	glut_min2_r/activation	glut_min3_r/activation	semimem_r/activation	semiten_r/activation	bifemlh_r/activation	bifemsh_r/activation	    sar_r/activation	add_long_r/activation	add_brev_r/activation	add_mag1_r/activation	add_mag2_r/activation	add_mag3_r/activation	    tfl_r/activation	   pect_r/activation	   grac_r/activation	glut_max1_r/activation	glut_max2_r/activation	glut_max3_r/activation	iliacus_r/activation	  psoas_r/activation	quad_fem_r/activation	    gem_r/activation	   peri_r/activation	rect_fem_r/activation	vas_med_r/activation	vas_int_r/activation	vas_lat_r/activation	med_gas_r/activation	lat_gas_r/activation	 soleus_r/activation	tib_post_r/activation	flex_dig_r/activation	flex_hal_r/activation	tib_ant_r/activation	per_brev_r/activation	per_long_r/activation	per_tert_r/activation	ext_dig_r/activation	ext_hal_r/activation	glut_med1_l/activation	glut_med2_l/activation	glut_med3_l/activation	glut_min1_l/activation	glut_min2_l/activation	glut_min3_l/activation	semimem_l/activation	semiten_l/activation	bifemlh_l/activation	bifemsh_l/activation	    sar_l/activation	add_long_l/activation	add_brev_l/activation	add_mag1_l/activation	add_mag2_l/activation	add_mag3_l/activation	    tfl_l/activation	   pect_l/activation	   grac_l/activation	glut_max1_l/activation	glut_max2_l/activation	glut_max3_l/activation	iliacus_l/activation	  psoas_l/activation	quad_fem_l/activation	    gem_l/activation	   peri_l/activation	rect_fem_l/activation	vas_med_l/activation	vas_int_l/activation	vas_lat_l/activation	med_gas_l/activation	lat_gas_l/activation	 soleus_l/activation	tib_post_l/activation	flex_dig_l/activation	flex_hal_l/activation	tib_ant_l/activation	per_brev_l/activation	per_long_l/activation	per_tert_l/activation	ext_dig_l/activation	ext_hal_l/activation	 ercspn_r/activation	 ercspn_l/activation	 intobl_r/activation	 intobl_l/activation	 extobl_r/activation	 extobl_l/activation	
          2.00524625	         -2.92635369	          0.45767482	         -1.22613865	          1.72451178	          0.87368319	          0.00223641	        -13.25697599	          3.78496541	         13.49831662	         -6.15360183	          9.18459941	         -2.80783304	         12.95145697	         25.58171068	          3.56237457	          7.40833950	         -5.79483542	          2.64243800	         -5.67350035	          0.20348237	         -3.95906892	          0.73731384	          1.38548468	          2.53950792	        -13.52993293	         19.34701202	         39.20518015	         -2.96233896	        -13.45569123	         14.62319950	         22.94356620	          0.41518998	          0.20634704	          0.10996813	          0.36392939	          0.37849984	          0.24865194	          0.01030608	          0.01002458	          0.01002478	          0.05232742	          0.13228290	          0.01000146	          0.01000213	          0.01000690	          0.01002925	          0.01001281	          0.37591041	          0.01000811	          0.01001216	          0.03507271	          0.02625455	          0.01003642	          0.25266476	          0.35674474	          0.01005090	          0.02282488	          0.11926161	          0.13171416	          0.01000505	          0.01000616	          0.01000519	          0.42281843	          0.46210495	          0.40205746	          0.22711791	          0.25305081	          0.31763072	          0.01273570	          0.13078971	          0.21013975	          0.01557163	          0.01517677	          0.01435304	          0.03535033	          0.01230343	          0.01000400	          0.01495631	          0.01493762	          0.01002159	          0.01224762	          0.05302321	          0.05542700	          0.01000306	          0.01000388	          0.14718426	          0.20264372	          0.14103402	          0.16125167	          0.09465767	          0.01000716	          0.02165472	          0.03696788	          0.01112398	          0.01494926	          0.04902157	          0.01829718	          0.01617701	          0.01291301	          0.01001141	          0.01000294	          0.01000447	          0.09807009	          0.10054847	          0.08259133	          0.01000074	          0.01000154	          0.01000137	          0.01013291	          0.01002957	          0.01004095	          0.21261098	          0.17339629	          0.11534761	          0.15052717	          0.33092787	          0.04370834	          0.01000014	          0.01707573	          0.01000036	          0.04991484	          0.01000067	          0.08499541	
          2.01861456	         -2.93019369	          0.68672224	         -1.35021882	          1.73869953	          0.87316599	          0.00201529	        -13.50353868	          3.60912773	         13.12238801	         -7.43192056	          8.88193104	         -2.46509387	         14.07854319	         24.62393768	          3.98160497	          7.61826230	         -4.80896645	          1.58745737	         -6.10064189	          0.21846597	         -3.81312097	          0.26594253	          1.46987215	          2.06155013	        -13.55511786	         19.35093315	         41.51814762	         -3.76069189	        -13.46401078	         14.00895867	         21.62597725	          0.44164532	          0.16874973	          0.08993136	          0.31652109	          0.30955054	          0.20334724	          0.01002939	          0.01000645	          0.01000519	          0.04279343	          0.10820262	          0.01000813	          0.01000635	          0.01001787	          0.01005203	          0.01001433	          0.32363376	          0.01004971	          0.01006788	          0.02868802	          0.02147883	          0.01004219	          0.23007806	          0.29178334	          0.01826699	          0.01868122	          0.09753164	          0.13536548	          0.01001114	          0.01001359	          0.01001088	          0.39173301	          0.43029309	          0.38812974	          0.22568592	          0.26134811	          0.32168322	          0.01041527	          0.10695955	          0.19359878	          0.01273467	          0.01241154	          0.01173847	          0.02890949	          0.01007896	          0.01000587	          0.01223295	          0.01222459	          0.01002361	          0.01001653	          0.04336316	          0.04532860	          0.01000125	          0.01000515	          0.12195800	          0.20248074	          0.18613568	          0.15166924	          0.07741726	          0.01000670	          0.03617429	          0.03023663	          0.01004736	          0.01222953	          0.06207505	          0.01496380	          0.01322990	          0.08541141	          0.01001816	          0.01001386	          0.01653685	          0.08769657	          0.08356600	          0.07200341	          0.01000029	          0.01000060	          0.01000018	          0.01000063	          0.01000390	          0.01000321	          0.21369337	          0.14498271	          0.10022861	          0.18036694	          0.35644189	          0.05329929	          0.01000178	          0.01396456	          0.01013022	          0.04082008	          0.01000153	          0.06950864	
          2.03198287	         -2.92887898	          0.92700546	         -1.46650053	          1.75327068	          0.87273770	          0.00179545	        -13.69566122	          3.41738318	         12.72602681	         -8.83288833	          8.42597274	         -2.06892291	         15.29472113	         23.64710650	          4.38273902	          7.85364472	         -4.42120840	          0.18301325	         -6.51487017	          0.22911716	         -3.64498294	         -0.22584392	          1.54712211	          1.49587630	        -13.57799691	         19.34200567	         43.83602447	         -4.56877697	        -13.48201942	         13.58858317	         20.26437363	          0.39055849	          0.13800253	          0.07354531	          0.31984240	          0.25315108	          0.16629650	          0.01006579	          0.01000670	          0.01000531	          0.03499656	          0.08849090	          0.01000294	          0.01000325	          0.01000901	          0.01003319	          0.01001159	          0.26467094	          0.01002054	          0.01001660	          0.02346419	          0.01757048	          0.01001828	          0.19476042	          0.24491571	          0.01494060	          0.01528261	          0.07976090	          0.15464381	          0.01000535	          0.01000684	          0.01000595	          0.35635852	          0.39149571	          0.36775689	          0.21511274	          0.25444909	          0.31121416	          0.01000039	          0.08747158	          0.19325582	          0.01041484	          0.01015025	          0.01000216	          0.02364216	          0.01000067	          0.01000160	          0.01000486	          0.01000172	          0.01000152	          0.01001283	          0.04136915	          0.03707018	          0.02289306	          0.01014277	          0.09976784	          0.18784713	          0.15224661	          0.12404101	          0.06331204	          0.01000346	          0.03325655	          0.11973449	          0.01000182	          0.01000330	          0.05076511	          0.01828135	          0.01828335	          0.14495401	          0.01861166	          0.01000416	          0.01352407	          0.07171818	          0.06834038	          0.05888445	          0.01499132	          0.01788227	          0.01224723	          0.01495362	          0.01228572	          0.01493657	          0.17475741	          0.12053475	          0.11169225	          0.14750359	          0.38928899	          0.04358951	          0.01000285	          0.01142025	          0.01223392	          0.03338247	          0.01223066	          0.05684366	
          2.04535118	         -2.92374638	          1.18616638	         -1.56990758	          1.76812990	          0.87242559	          0.00159518	        -13.81559282	          3.20322504	         12.30606373	        -10.36717925	          7.80006455	         -1.61664959	         16.58556744	         22.62256991	          4.73451023	          8.12419312	         -4.13555145	         -1.46132024	         -6.92306427	          0.22777196	         -3.46123700	         -0.74675762	          1.61361324	          0.85461921	        -13.59225048	         19.31548253	         46.15250099	         -5.36056348	        -13.51184846	         13.39939465	         18.83790175	          0.39231027	          0.11285756	          0.06014487	          0.36542441	          0.20702649	          0.13599633	          0.01003739	          0.01000441	          0.01000454	          0.02862028	          0.07236886	          0.01000294	          0.01000281	          0.01000865	          0.01003349	          0.01001163	          0.21644802	          0.01001681	          0.01001296	          0.01919126	          0.01437397	          0.01002965	          0.18212564	          0.24419293	          0.01222125	          0.01250166	          0.06522799	          0.12646746	          0.01005868	          0.01004991	          0.01003075	          0.31522139	          0.35156508	          0.34141889	          0.19711716	          0.23116110	          0.29196274	          0.01000052	          0.07153765	          0.20778578	          0.01000162	          0.01000058	          0.01000290	          0.18313871	          0.16762276	          0.15699425	          0.01788789	          0.01001889	          0.13983015	          0.03193005	          0.04390503	          0.03032235	          0.01872305	          0.01005357	          0.08158976	          0.15362046	          0.12450776	          0.10144205	          0.05177790	          0.01001254	          0.02720070	          0.09791927	          0.01000674	          0.01000399	          0.04151667	          0.01495079	          0.01495239	          0.11854328	          0.01522632	          0.07849507	          0.01106039	          0.05865187	          0.05588980	          0.04815657	          0.01225992	          0.01462425	          0.01001585	          0.01222913	          0.01004816	          0.01221604	          0.30601764	          0.19806390	          0.10793956	          0.38117495	          0.47061399	          0.14843549	          0.01911243	          0.01254859	          0.01000492	          0.02730042	          0.01000297	          0.04648633	
